<?xml version="1.0" encoding="UTF-8" standalone="no"?>
<!-- Created with Inkscape (http://www.inkscape.org/) -->
<svg xmlns:dc="http://purl.org/dc/elements/1.1/" xmlns:cc="http://creativecommons.org/ns#" xmlns:rdf="http://www.w3.org/1999/02/22-rdf-syntax-ns#" xmlns:svg="http://www.w3.org/2000/svg" xmlns="http://www.w3.org/2000/svg" xmlns:xlink="http://www.w3.org/1999/xlink" xmlns:sodipodi="http://sodipodi.sourceforge.net/DTD/sodipodi-0.dtd" xmlns:inkscape="http://www.inkscape.org/namespaces/inkscape" id="svg2" sodipodi:version="0.32" inkscape:version="0.46" width="405.85623" height="405.85623" version="1.0" sodipodi:docname="M-45_missile.svg" inkscape:output_extension="org.inkscape.output.svg.inkscape">
  <metadata id="metadata7">
    <rdf:RDF>
      <cc:Work rdf:about="">
        <dc:format>image/svg+xml</dc:format>
        <dc:type rdf:resource="http://purl.org/dc/dcmitype/StillImage"/>
      </cc:Work>
    </rdf:RDF>
  </metadata>
  <defs id="defs5">
    <linearGradient id="linearGradient3405">
      <stop style="stop-color:#000000;stop-opacity:1;" offset="0" id="stop3407"/>
      <stop id="stop3415" offset="0.5" style="stop-color:#6c6c6c;stop-opacity:1;"/>
      <stop style="stop-color:#000000;stop-opacity:1;" offset="1" id="stop3409"/>
    </linearGradient>
    <linearGradient id="linearGradient3395">
      <stop style="stop-color:#bbbbbb;stop-opacity:1;" offset="0" id="stop3397"/>
      <stop id="stop3403" offset="0.5" style="stop-color:#f6f6f6;stop-opacity:1;"/>
      <stop style="stop-color:#636363;stop-opacity:1;" offset="1" id="stop3399"/>
    </linearGradient>
    <inkscape:perspective sodipodi:type="inkscape:persp3d" inkscape:vp_x="0 : 526.18109 : 1" inkscape:vp_y="0 : 1000 : 0" inkscape:vp_z="744.09448 : 526.18109 : 1" inkscape:persp3d-origin="372.04724 : 350.78739 : 1" id="perspective9"/>
    <linearGradient inkscape:collect="always" xlink:href="#linearGradient3395" id="linearGradient3401" x1="424.22873" y1="225.44148" x2="489.03284" y2="225.44148" gradientUnits="userSpaceOnUse"/>
    <linearGradient inkscape:collect="always" xlink:href="#linearGradient3405" id="linearGradient3411" x1="441.86169" y1="378.95212" x2="472.68298" y2="378.39581" gradientUnits="userSpaceOnUse"/>
    <linearGradient inkscape:collect="always" xlink:href="#linearGradient3405" id="linearGradient3413" x1="441.86169" y1="378.95212" x2="472.68298" y2="378.39581" gradientUnits="userSpaceOnUse"/>
    <linearGradient inkscape:collect="always" xlink:href="#linearGradient3395" id="linearGradient3597" x1="52.073902" y1="67.632156" x2="68.209473" y2="67.448799" gradientUnits="userSpaceOnUse"/>
    <linearGradient inkscape:collect="always" xlink:href="#linearGradient3395" id="linearGradient3605" x1="51.424061" y1="82.999474" x2="69.094696" y2="82.891884" gradientUnits="userSpaceOnUse"/>
    <linearGradient inkscape:collect="always" xlink:href="#linearGradient3395" id="linearGradient3613" x1="67.773636" y1="76.152863" x2="51.534409" y2="74.850113" gradientUnits="userSpaceOnUse"/>
    <linearGradient inkscape:collect="always" xlink:href="#linearGradient3395" id="linearGradient3615" x1="70.721436" y1="75.660103" x2="52.190292" y2="74.57682" gradientUnits="userSpaceOnUse"/>
    <linearGradient inkscape:collect="always" xlink:href="#linearGradient3395" id="linearGradient3661" gradientUnits="userSpaceOnUse" x1="52.073902" y1="67.632156" x2="68.209473" y2="67.448799"/>
    <linearGradient inkscape:collect="always" xlink:href="#linearGradient3395" id="linearGradient3663" gradientUnits="userSpaceOnUse" x1="52.073902" y1="67.632156" x2="68.209473" y2="67.448799"/>
    <linearGradient inkscape:collect="always" xlink:href="#linearGradient3395" id="linearGradient3665" gradientUnits="userSpaceOnUse" x1="52.073902" y1="67.632156" x2="68.209473" y2="67.448799"/>
    <linearGradient inkscape:collect="always" xlink:href="#linearGradient3395" id="linearGradient3667" gradientUnits="userSpaceOnUse" x1="52.073902" y1="67.632156" x2="68.209473" y2="67.448799"/>
    <linearGradient inkscape:collect="always" xlink:href="#linearGradient3395" id="linearGradient3669" gradientUnits="userSpaceOnUse" x1="51.424061" y1="82.999474" x2="69.094696" y2="82.891884"/>
    <linearGradient inkscape:collect="always" xlink:href="#linearGradient3395" id="linearGradient3671" gradientUnits="userSpaceOnUse" x1="51.424061" y1="82.999474" x2="69.094696" y2="82.891884"/>
    <linearGradient inkscape:collect="always" xlink:href="#linearGradient3395" id="linearGradient3673" gradientUnits="userSpaceOnUse" x1="51.424061" y1="82.999474" x2="69.094696" y2="82.891884"/>
    <linearGradient inkscape:collect="always" xlink:href="#linearGradient3395" id="linearGradient3675" gradientUnits="userSpaceOnUse" x1="51.424061" y1="82.999474" x2="69.094696" y2="82.891884"/>
    <linearGradient inkscape:collect="always" xlink:href="#linearGradient3395" id="linearGradient3677" gradientUnits="userSpaceOnUse" x1="67.773636" y1="76.152863" x2="51.534409" y2="74.850113"/>
    <linearGradient inkscape:collect="always" xlink:href="#linearGradient3395" id="linearGradient3679" gradientUnits="userSpaceOnUse" x1="67.773636" y1="76.152863" x2="51.534409" y2="74.850113"/>
    <linearGradient inkscape:collect="always" xlink:href="#linearGradient3395" id="linearGradient3681" gradientUnits="userSpaceOnUse" x1="67.773636" y1="76.152863" x2="51.534409" y2="74.850113"/>
    <linearGradient inkscape:collect="always" xlink:href="#linearGradient3395" id="linearGradient3683" gradientUnits="userSpaceOnUse" x1="67.773636" y1="76.152863" x2="51.534409" y2="74.850113"/>
    <linearGradient inkscape:collect="always" xlink:href="#linearGradient3395" id="linearGradient3685" gradientUnits="userSpaceOnUse" x1="70.721436" y1="75.660103" x2="52.190292" y2="74.57682"/>
    <linearGradient inkscape:collect="always" xlink:href="#linearGradient3395" id="linearGradient3687" gradientUnits="userSpaceOnUse" x1="70.721436" y1="75.660103" x2="52.190292" y2="74.57682"/>
    <linearGradient inkscape:collect="always" xlink:href="#linearGradient3395" id="linearGradient3689" gradientUnits="userSpaceOnUse" x1="70.721436" y1="75.660103" x2="52.190292" y2="74.57682"/>
    <linearGradient inkscape:collect="always" xlink:href="#linearGradient3395" id="linearGradient3691" gradientUnits="userSpaceOnUse" x1="70.721436" y1="75.660103" x2="52.190292" y2="74.57682"/>
  </defs>
  <sodipodi:namedview inkscape:window-height="821" inkscape:window-width="938" inkscape:pageshadow="2" inkscape:pageopacity="0.0" guidetolerance="10.0" gridtolerance="10.0" objecttolerance="10.0" borderopacity="1.0" bordercolor="#666666" pagecolor="#ffffff" id="base" showgrid="false" inkscape:zoom="0.68172346" inkscape:cx="33.807785" inkscape:cy="211.30662" inkscape:window-x="0" inkscape:window-y="122" inkscape:current-layer="layer2">
    <inkscape:grid type="xygrid" id="grid3239" visible="true" enabled="true"/>
  </sodipodi:namedview>
  <g inkscape:groupmode="layer" id="layer2" inkscape:label="work" transform="translate(-171.12386,-5.7069583)">
    <path style="fill:url(#linearGradient3401);fill-opacity:1;fill-rule:evenodd;stroke:#000000;stroke-width:1px;stroke-linecap:butt;stroke-linejoin:miter;stroke-opacity:1;display:inline" d="M 456.625,23.21875 C 454.80983,23.191847 453.00266,23.406917 451.1875,23.90625 C 444.72013,25.685369 429.13491,64.97196 425.1875,91.96875 C 424.56022,96.258751 424.17172,100.31592 424.21875,103.78125 L 424.21875,104.09375 L 424.21875,131.59375 L 424.21875,154.6875 L 424.21875,198.3125 L 424.21875,206.03125 L 424.21875,221.4375 L 424.21875,236.09375 L 424.21875,241.84375 L 424.25,249.34375 L 424.25,256.75 L 424.25,264.25 L 424.25,271.96875 L 424.25,279.46875 L 424.25,286.625 L 424.25,294.125 L 424.25,301.84375 L 424.25,309.34375 L 424.25,316.625 L 424.25,324.125 L 424.25,331.84375 L 424.25,339.34375 L 424.25,346.46875 L 424.25,354 L 424.25,361.6875 L 424.25,369.21875 L 424.25,371.90625 L 488.40625,372.09375 L 488.40625,369.21875 L 488.40625,361.6875 L 488.40625,354 L 488.40625,346.46875 L 488.40625,339.34375 L 488.40625,331.84375 L 488.40625,324.125 L 488.40625,316.625 L 488.40625,309.34375 L 488.40625,301.84375 L 488.40625,294.125 L 488.40625,286.625 L 488.40625,279.46875 L 488.4375,271.96875 L 488.4375,264.25 L 488.4375,256.75 L 488.4375,249.34375 L 488.46875,241.84375 L 488.46875,236.09375 L 488.46875,221.4375 L 488.46875,206.03125 L 488.46875,198.3125 L 488.5,154.6875 L 488.53125,131.59375 L 488.53125,104.09375 L 488.53125,103.25 C 488.56256,100.11919 488.12494,96.20951 487.46875,91.96875 C 483.51212,66.398311 468.70655,25.340069 462.0625,23.90625 C 460.24733,23.51453 458.44016,23.245653 456.625,23.21875 z" id="path3334"/>
    <g id="g3417" transform="translate(134.84043,-2.074468)" style="stroke:#696969;stroke-opacity:1">
      <path id="path3288" d="M 353.0625,371.09375 L 288.90625,371.09375 L 288.90625,373.78125 L 353.0625,373.96875 L 353.0625,371.09375 z" style="fill:none;fill-opacity:0.75;fill-rule:evenodd;stroke:#696969;stroke-width:1px;stroke-linecap:butt;stroke-linejoin:miter;stroke-opacity:1"/>
      <path id="path3286" d="M 353.0625,363.5625 L 288.90625,363.5625 L 288.90625,371.09375 L 353.0625,371.09375 L 353.0625,363.5625 z" style="fill:none;fill-opacity:0.75;fill-rule:evenodd;stroke:#696969;stroke-width:1px;stroke-linecap:butt;stroke-linejoin:miter;stroke-opacity:1"/>
      <path id="path3293" d="M 353.0625,355.875 L 288.90625,355.875 L 288.90625,363.5625 L 353.0625,363.5625 L 353.0625,355.875 z" style="fill:none;fill-opacity:0.75;fill-rule:evenodd;stroke:#696969;stroke-width:1px;stroke-linecap:butt;stroke-linejoin:miter;stroke-opacity:1"/>
      <path id="path3291" d="M 353.0625,348.34375 L 288.90625,348.34375 L 288.90625,355.875 L 353.0625,355.875 L 353.0625,348.34375 z" style="fill:none;fill-opacity:0.75;fill-rule:evenodd;stroke:#696969;stroke-width:1px;stroke-linecap:butt;stroke-linejoin:miter;stroke-opacity:1"/>
      <path id="path3298" d="M 353.0625,341.21875 L 288.90625,341.21875 L 288.90625,348.34375 L 353.0625,348.34375 L 353.0625,341.21875 z" style="fill:none;fill-opacity:0.75;fill-rule:evenodd;stroke:#696969;stroke-width:1px;stroke-linecap:butt;stroke-linejoin:miter;stroke-opacity:1"/>
      <path id="path3296" d="M 353.0625,333.71875 L 288.90625,333.71875 L 288.90625,341.21875 L 353.0625,341.21875 L 353.0625,333.71875 z" style="fill:none;fill-opacity:0.75;fill-rule:evenodd;stroke:#696969;stroke-width:1px;stroke-linecap:butt;stroke-linejoin:miter;stroke-opacity:1"/>
      <path id="path3303" d="M 353.0625,326 L 288.90625,326 L 288.90625,333.71875 L 353.0625,333.71875 L 353.0625,326 z" style="fill:none;fill-opacity:0.75;fill-rule:evenodd;stroke:#696969;stroke-width:1px;stroke-linecap:butt;stroke-linejoin:miter;stroke-opacity:1"/>
      <path id="path3301" d="M 353.0625,318.5 L 288.90625,318.5 L 288.90625,326 L 353.0625,326 L 353.0625,318.5 z" style="fill:none;fill-opacity:0.75;fill-rule:evenodd;stroke:#696969;stroke-width:1px;stroke-linecap:butt;stroke-linejoin:miter;stroke-opacity:1"/>
      <path id="path3308" d="M 353.0625,311.21875 L 288.90625,311.21875 L 288.90625,318.5 L 353.0625,318.5 L 353.0625,311.21875 z" style="fill:none;fill-opacity:0.75;fill-rule:evenodd;stroke:#696969;stroke-width:1px;stroke-linecap:butt;stroke-linejoin:miter;stroke-opacity:1"/>
      <path id="path3306" d="M 353.0625,303.71875 L 288.90625,303.71875 L 288.90625,311.21875 L 353.0625,311.21875 L 353.0625,303.71875 z" style="fill:none;fill-opacity:0.75;fill-rule:evenodd;stroke:#696969;stroke-width:1px;stroke-linecap:butt;stroke-linejoin:miter;stroke-opacity:1"/>
      <path id="path3313" d="M 353.0625,296 L 288.90625,296 L 288.90625,303.71875 L 353.0625,303.71875 L 353.0625,296 z" style="fill:none;fill-opacity:0.75;fill-rule:evenodd;stroke:#696969;stroke-width:1px;stroke-linecap:butt;stroke-linejoin:miter;stroke-opacity:1"/>
      <path id="path3311" d="M 353.0625,288.5 L 288.90625,288.5 L 288.90625,296 L 353.0625,296 L 353.0625,288.5 z" style="fill:none;fill-opacity:0.75;fill-rule:evenodd;stroke:#696969;stroke-width:1px;stroke-linecap:butt;stroke-linejoin:miter;stroke-opacity:1"/>
      <path id="path3318" d="M 353.0625,281.34375 L 288.90625,281.34375 L 288.90625,288.5 L 353.0625,288.5 L 353.0625,281.34375 z" style="fill:none;fill-opacity:0.75;fill-rule:evenodd;stroke:#696969;stroke-width:1px;stroke-linecap:butt;stroke-linejoin:miter;stroke-opacity:1"/>
      <path id="path3316" d="M 353.09375,273.84375 L 288.90625,273.84375 L 288.90625,281.34375 L 353.0625,281.34375 L 353.09375,273.84375 z" style="fill:none;fill-opacity:0.75;fill-rule:evenodd;stroke:#696969;stroke-width:1px;stroke-linecap:butt;stroke-linejoin:miter;stroke-opacity:1"/>
      <path id="path3323" d="M 353.09375,266.125 L 288.90625,266.125 L 288.90625,273.84375 L 353.09375,273.84375 L 353.09375,266.125 z" style="fill:none;fill-opacity:0.75;fill-rule:evenodd;stroke:#696969;stroke-width:1px;stroke-linecap:butt;stroke-linejoin:miter;stroke-opacity:1"/>
      <path id="path3321" d="M 353.09375,258.625 L 288.90625,258.625 L 288.90625,266.125 L 353.09375,266.125 L 353.09375,258.625 z" style="fill:none;fill-opacity:0.75;fill-rule:evenodd;stroke:#696969;stroke-width:1px;stroke-linecap:butt;stroke-linejoin:miter;stroke-opacity:1"/>
      <path id="path3328" d="M 353.09375,251.21875 L 288.90625,251.21875 L 288.90625,258.625 L 353.09375,258.625 L 353.09375,251.21875 z" style="fill:none;fill-opacity:0.75;fill-rule:evenodd;stroke:#696969;stroke-width:1px;stroke-linecap:butt;stroke-linejoin:miter;stroke-opacity:1"/>
      <path id="path3326" d="M 353.125,243.71875 L 288.875,243.71875 L 288.90625,251.21875 L 353.09375,251.21875 L 353.125,243.71875 z" style="fill:none;fill-opacity:0.75;fill-rule:evenodd;stroke:#696969;stroke-width:1px;stroke-linecap:butt;stroke-linejoin:miter;stroke-opacity:1"/>
      <path id="path3186" d="M 288.875,237.96875 L 288.875,243.71875 L 353.125,243.71875 L 353.125,237.96875 L 288.875,237.96875 z" style="fill:none;fill-opacity:0.75;fill-rule:evenodd;stroke:#696969;stroke-width:1px;stroke-linecap:butt;stroke-linejoin:miter;stroke-opacity:1"/>
      <path id="path3184" d="M 353.125,223.3125 L 288.875,223.3125 L 288.875,237.96875 L 353.125,237.96875 L 353.125,223.3125 z" style="fill:none;fill-opacity:0.75;fill-rule:evenodd;stroke:#696969;stroke-width:1px;stroke-linecap:butt;stroke-linejoin:miter;stroke-opacity:1"/>
      <path id="path3179" d="M 288.875,207.90625 L 288.875,223.3125 L 353.125,223.3125 L 353.125,207.90625 L 288.875,207.90625 z" style="fill:none;fill-opacity:0.75;fill-rule:evenodd;stroke:#696969;stroke-width:1px;stroke-linecap:butt;stroke-linejoin:miter;stroke-opacity:1"/>
      <path id="path3177" d="M 353.125,200.1875 L 288.875,200.1875 L 288.875,207.90625 L 353.125,207.90625 L 353.125,200.1875 z" style="fill:none;fill-opacity:0.75;fill-rule:evenodd;stroke:#696969;stroke-width:1px;stroke-linecap:butt;stroke-linejoin:miter;stroke-opacity:1"/>
      <path id="path3172" d="M 288.875,156.5625 L 288.875,200.1875 L 353.125,200.1875 L 353.15625,156.5625 L 288.875,156.5625 z" style="fill:none;fill-opacity:0.75;fill-rule:evenodd;stroke:#696969;stroke-width:1px;stroke-linecap:butt;stroke-linejoin:miter;stroke-opacity:1"/>
      <path id="path3170" d="M 353.1875,133.46875 L 288.875,133.46875 L 288.875,156.5625 L 353.15625,156.5625 L 353.1875,133.46875 z" style="fill:none;fill-opacity:0.75;fill-rule:evenodd;stroke:#696969;stroke-width:1px;stroke-linecap:butt;stroke-linejoin:miter;stroke-opacity:1"/>
      <path id="path3165" d="M 288.875,105.96875 L 288.875,133.46875 L 353.1875,133.46875 L 353.1875,105.96875 L 288.875,105.96875 z" style="fill:none;fill-opacity:0.75;fill-rule:evenodd;stroke:#696969;stroke-width:1px;stroke-linecap:butt;stroke-linejoin:miter;stroke-opacity:1"/>
      <path id="path3163" d="M 352.125,93.84375 L 289.84375,93.84375 C 289.21648,98.133747 288.82797,102.19092 288.875,105.65625 L 288.875,105.96875 L 353.1875,105.96875 L 353.1875,105.125 C 353.21882,101.99419 352.78119,98.084508 352.125,93.84375 z" style="fill:none;fill-opacity:0.75;fill-rule:evenodd;stroke:#696969;stroke-width:1px;stroke-linecap:butt;stroke-linejoin:miter;stroke-opacity:1"/>
      <path id="path3158" d="M 321.28125,25.09375 C 319.46609,25.066847 317.65891,25.281917 315.84375,25.78125 C 309.37639,27.560364 293.79116,66.846961 289.84375,93.84375 L 352.125,93.84375 C 348.16838,68.273309 333.3628,27.21507 326.71875,25.78125 C 324.90359,25.38953 323.09641,25.120653 321.28125,25.09375 z" style="fill:none;fill-opacity:0.75;fill-rule:evenodd;stroke:#696969;stroke-width:1px;stroke-linecap:butt;stroke-linejoin:miter;stroke-opacity:1"/>
      <path sodipodi:nodetypes="ccccc" id="path3330" d="M 307.126,386.49312 L 336.83013,386.30976 C 336.51438,382.30389 335.47375,378.48351 332.61288,374.02472 L 310.97654,374.02472 C 307.65358,378.58874 307.54831,382.5459 307.126,386.49312 z" style="fill:none;fill-opacity:0.75;fill-rule:evenodd;stroke:#696969;stroke-width:1px;stroke-linecap:butt;stroke-linejoin:miter;stroke-opacity:1"/>
      <rect rx="0.73343521" ry="2.2003057" y="386.67648" x="306.02585" height="5.5007644" width="31.721073" id="rect3332" style="opacity:1;fill:none;fill-opacity:1;fill-rule:evenodd;stroke:#696969;stroke-width:1;stroke-linecap:round;stroke-linejoin:miter;marker:none;marker-start:none;marker-mid:none;marker-end:none;stroke-miterlimit:4;stroke-dasharray:none;stroke-dashoffset:0;stroke-opacity:1;visibility:visible;display:inline;overflow:visible;enable-background:accumulate"/>
    </g>
    <path style="fill:none;fill-opacity:0.75;fill-rule:evenodd;stroke:#000000;stroke-width:1px;stroke-linecap:butt;stroke-linejoin:miter;stroke-opacity:1" d="M 376.24113,266.07107 L 238.46126,266.07107 C 237.0736,275.5452 236.21413,284.50514 236.31817,292.15807 L 236.31817,292.8482 L 378.59162,292.8482 L 378.59162,290.98484 C 378.66091,284.07068 377.69277,275.43646 376.24113,266.07107 z" id="path3617"/>
    <path style="fill:none;fill-opacity:0.75;fill-rule:evenodd;stroke:#000000;stroke-width:1px;stroke-linecap:butt;stroke-linejoin:miter;stroke-opacity:1" d="M 308.00795,114.24214 C 303.99241,114.18273 299.99454,114.65769 295.979,115.76043 C 281.67178,119.68947 247.1938,206.4508 238.46126,266.07107 L 376.24113,266.07107 C 367.48821,209.60078 334.73501,118.92691 320.0369,115.76043 C 316.02137,114.89534 312.02349,114.30154 308.00795,114.24214 z" id="path3619"/>
    <g id="g3621" style="fill:url(#linearGradient3667);fill-opacity:1" transform="matrix(2.2122208,0,0,2.2084209,173.02201,69.556986)">
      <path id="path3623" d="M 69.3125,83.40625 L 52.28125,83.40625 C 57.434655,86.213353 63.617137,86.103348 69.3125,83.40625 z" style="fill:url(#linearGradient3661);fill-opacity:1;fill-rule:evenodd;stroke:#000000;stroke-width:0.45242316px;stroke-linecap:butt;stroke-linejoin:miter;stroke-opacity:1"/>
      <path id="path3625" d="M 68.9375,80.09375 L 52.6875,80.09375 L 52.125,83.34375 C 52.175032,83.371665 52.231019,83.378889 52.28125,83.40625 L 69.3125,83.40625 C 69.373388,83.377416 69.439228,83.373176 69.5,83.34375 L 68.9375,80.09375 z" style="fill:url(#linearGradient3663);fill-opacity:1;fill-rule:evenodd;stroke:#000000;stroke-width:0.45242316px;stroke-linecap:butt;stroke-linejoin:miter;stroke-opacity:1"/>
      <path sodipodi:nodetypes="cccccz" id="path3627" d="M 60.776596,41.879654 C 60.0391,41.932753 59.251994,42.500345 58.90625,43.65625 L 52.6875,80.09375 L 68.9375,80.09375 L 62.625,43.850731 C 62.462614,42.481904 61.51591,41.826424 60.776596,41.879654 z" style="fill:url(#linearGradient3665);fill-opacity:1;fill-rule:evenodd;stroke:#000000;stroke-width:0.45242316px;stroke-linecap:butt;stroke-linejoin:miter;stroke-opacity:1"/>
    </g>
    <g id="g3629" transform="matrix(1.9131686,0.4951079,-0.4959597,1.9098825,196.32709,54.67214)">
      <path id="path3631" d="M 69.3125,83.40625 L 52.28125,83.40625 C 57.434655,86.213353 63.617137,86.103348 69.3125,83.40625 z" style="fill:none;fill-opacity:0.75;fill-rule:evenodd;stroke:#000000;stroke-width:0.50640339px;stroke-linecap:butt;stroke-linejoin:miter;stroke-opacity:1"/>
      <path id="path3633" d="M 68.9375,80.09375 L 52.6875,80.09375 L 52.125,83.34375 C 52.175032,83.371665 52.231019,83.378889 52.28125,83.40625 L 69.3125,83.40625 C 69.373388,83.377416 69.439228,83.373176 69.5,83.34375 L 68.9375,80.09375 z" style="fill:none;fill-opacity:0.75;fill-rule:evenodd;stroke:#000000;stroke-width:0.50640339px;stroke-linecap:butt;stroke-linejoin:miter;stroke-opacity:1"/>
      <path sodipodi:nodetypes="cccccz" id="path3635" d="M 60.776596,41.879654 C 60.0391,41.932753 59.251994,42.500345 58.90625,43.65625 L 52.6875,80.09375 L 68.9375,80.09375 L 62.625,43.850731 C 62.462614,42.481904 61.51591,41.826424 60.776596,41.879654 z" style="fill:none;fill-opacity:0.75;fill-rule:evenodd;stroke:#000000;stroke-width:0.50640339px;stroke-linecap:butt;stroke-linejoin:miter;stroke-opacity:1"/>
    </g>
    <g id="g3637" transform="matrix(2.0856169,0.5397357,-0.5406643,2.0820346,184.47065,41.84022)" style="fill:url(#linearGradient3675);fill-opacity:1">
      <path id="path3639" d="M 69.3125,83.40625 L 52.28125,83.40625 C 57.434655,86.213353 63.617137,86.103348 69.3125,83.40625 z" style="fill:url(#linearGradient3669);fill-opacity:1;fill-rule:evenodd;stroke:#000000;stroke-width:0.46453169px;stroke-linecap:butt;stroke-linejoin:miter;stroke-opacity:1"/>
      <path id="path3641" d="M 68.9375,80.09375 L 52.6875,80.09375 L 52.125,83.34375 C 52.175032,83.371665 52.231019,83.378889 52.28125,83.40625 L 69.3125,83.40625 C 69.373388,83.377416 69.439228,83.373176 69.5,83.34375 L 68.9375,80.09375 z" style="fill:url(#linearGradient3671);fill-opacity:1;fill-rule:evenodd;stroke:#000000;stroke-width:0.46453169px;stroke-linecap:butt;stroke-linejoin:miter;stroke-opacity:1"/>
      <path sodipodi:nodetypes="cccccz" id="path3643" d="M 60.776596,41.879654 C 60.0391,41.932753 59.251994,42.500345 58.90625,43.65625 L 52.6875,80.09375 L 68.9375,80.09375 L 62.625,43.850731 C 62.462614,42.481904 61.51591,41.826424 60.776596,41.879654 z" style="fill:url(#linearGradient3673);fill-opacity:1;fill-rule:evenodd;stroke:#000000;stroke-width:0.46453169px;stroke-linecap:butt;stroke-linejoin:miter;stroke-opacity:1"/>
    </g>
    <g id="g3645" transform="matrix(-1.9131686,0.4951079,0.4959597,1.9098825,419.86636,54.901506)" style="fill:url(#linearGradient3683);fill-opacity:1">
      <path id="path3647" d="M 69.3125,83.40625 L 52.28125,83.40625 C 57.434655,86.213353 63.617137,86.103348 69.3125,83.40625 z" style="fill:url(#linearGradient3677);fill-opacity:1;fill-rule:evenodd;stroke:#000000;stroke-width:0.50640339px;stroke-linecap:butt;stroke-linejoin:miter;stroke-opacity:1"/>
      <path id="path3649" d="M 68.9375,80.09375 L 52.6875,80.09375 L 52.125,83.34375 C 52.175032,83.371665 52.231019,83.378889 52.28125,83.40625 L 69.3125,83.40625 C 69.373388,83.377416 69.439228,83.373176 69.5,83.34375 L 68.9375,80.09375 z" style="fill:url(#linearGradient3679);fill-opacity:1;fill-rule:evenodd;stroke:#000000;stroke-width:0.50640339px;stroke-linecap:butt;stroke-linejoin:miter;stroke-opacity:1"/>
      <path sodipodi:nodetypes="cccccz" id="path3651" d="M 60.776596,41.879654 C 60.0391,41.932753 59.251994,42.500345 58.90625,43.65625 L 52.6875,80.09375 L 68.9375,80.09375 L 62.625,43.850731 C 62.462614,42.481904 61.51591,41.826424 60.776596,41.879654 z" style="fill:url(#linearGradient3681);fill-opacity:1;fill-rule:evenodd;stroke:#000000;stroke-width:0.50640339px;stroke-linecap:butt;stroke-linejoin:miter;stroke-opacity:1"/>
    </g>
    <g id="g3653" transform="matrix(-2.0670107,0.5349205,0.5358408,2.0634602,430.77352,43.997163)" style="fill:url(#linearGradient3691);fill-opacity:1">
      <path id="path3655" d="M 69.3125,83.40625 L 52.28125,83.40625 C 57.434655,86.213353 63.617137,86.103348 69.3125,83.40625 z" style="fill:url(#linearGradient3685);fill-opacity:1;fill-rule:evenodd;stroke:#000000;stroke-width:0.46871313px;stroke-linecap:butt;stroke-linejoin:miter;stroke-opacity:1"/>
      <path id="path3657" d="M 68.9375,80.09375 L 52.6875,80.09375 L 52.125,83.34375 C 52.175032,83.371665 52.231019,83.378889 52.28125,83.40625 L 69.3125,83.40625 C 69.373388,83.377416 69.439228,83.373176 69.5,83.34375 L 68.9375,80.09375 z" style="fill:url(#linearGradient3687);fill-opacity:1;fill-rule:evenodd;stroke:#000000;stroke-width:0.46871313px;stroke-linecap:butt;stroke-linejoin:miter;stroke-opacity:1"/>
      <path sodipodi:nodetypes="cccccz" id="path3659" d="M 60.776596,41.879654 C 60.0391,41.932753 59.251994,42.500345 58.90625,43.65625 L 52.6875,80.09375 L 68.9375,80.09375 L 62.625,43.850731 C 62.462614,42.481904 61.51591,41.826424 60.776596,41.879654 z" style="fill:url(#linearGradient3689);fill-opacity:1;fill-rule:evenodd;stroke:#000000;stroke-width:0.46871313px;stroke-linecap:butt;stroke-linejoin:miter;stroke-opacity:1"/>
    </g>
    <path style="fill:url(#linearGradient3413);fill-opacity:1;fill-rule:evenodd;stroke:#000000;stroke-width:1px;stroke-linecap:butt;stroke-linejoin:miter;stroke-opacity:1;display:inline" d="M 442.47886,384.63001 L 472.18299,384.44665 C 471.86724,380.44078 470.82661,376.6204 467.96574,372.16161 L 446.3294,372.16161 C 443.00644,376.72563 442.90117,380.68279 442.47886,384.63001 z" id="path3388" sodipodi:nodetypes="ccccc"/>
    <rect style="opacity:1;fill:url(#linearGradient3411);fill-opacity:1;fill-rule:evenodd;stroke:#000000;stroke-width:1;stroke-linecap:round;stroke-linejoin:miter;marker:none;marker-start:none;marker-mid:none;marker-end:none;stroke-miterlimit:4;stroke-dasharray:none;stroke-dashoffset:0;stroke-opacity:1;visibility:visible;display:inline;overflow:visible;enable-background:accumulate" id="rect3390" width="31.721073" height="5.5007644" x="441.37872" y="384.81339" ry="2.2003057" rx="0.73343521"/>
  </g>
</svg>